<?xml version="1.0" encoding="UTF-8"?>
<svg id="Layer_2" data-name="Layer 2" xmlns="http://www.w3.org/2000/svg" viewBox="0 0 173.51 76.89">
  <defs>
    <style>
      .cls-1 {
        fill: #ec6608;
      }

      .cls-2 {
        fill: #ffdf05;
      }
    </style>
  </defs>
  <g id="Layer_1-2" data-name="Layer 1">
    <g>
      <path d="m119.99,69.98c-1.07.01-1.82,1.08-1.46,2.09,1,2.82,3.52,4.82,6.48,4.82h0v-5.39c0-.87-.71-1.58-1.59-1.57l-3.43.05Z"/>
      <path d="m120.72,27.62s-.04,0-.06,0c-1.38-.03-2.48-1.17-2.45-2.56.09-3.92.23-10.49-5.14-15.51-3.15-2.95-8.14-4.48-14.81-4.54-.17,0-.31,0-.42,0-1.38-.03-2.48-1.18-2.44-2.56.03-1.38,1.18-2.5,2.56-2.44h.36c7.96.08,14.08,2.06,18.18,5.89,7,6.55,6.82,14.83,6.72,19.28-.03,1.36-1.14,2.45-2.5,2.45Z"/>
      <path d="m107.99,12.63c0,.3-.13.6-.39.8-.18.15-.4.21-.62.21-.3,0-.59-.13-.79-.39-.02-.03-.06-.09-.08-.12-.11-.17-.25-.35-.43-.5-.27-.24-.63-.41-1.09-.41s-.82.2-1.07.41c-.29.24-.44.49-.45.5-.28.47-.89.64-1.36.37-.48-.27-.65-.87-.39-1.34.05-.08,1.09-1.93,3.26-1.93,1.3,0,2.47.67,3.21,1.84.12.18.18.37.18.57Z"/>
      <path d="m24.68,38.35c-.92-1.99-2.22-3.52-3.88-4.57-1.67-1.05-3.61-1.58-5.83-1.58-1.92,0-3.53.35-4.84,1.04-1.3.69-2.58,1.69-3.83,2.99v-10.18c0-1.22-.28-2.16-.83-2.82-.56-.66-1.35-.99-2.37-.99s-1.74.35-2.29,1.04c-.55.69-.82,1.71-.82,3.07v29.11c0,1.26.28,2.2.84,2.85.57.64,1.32.97,2.26.97s1.69-.33,2.3-.97c.6-.65.91-1.59.91-2.85v-.66c.73.85,1.32,1.48,1.77,1.91.45.43.99.84,1.62,1.23.64.4,1.41.73,2.31.97.9.25,1.87.37,2.89.37,1.68,0,3.21-.34,4.61-1.02,1.39-.68,2.58-1.63,3.55-2.87.98-1.24,1.72-2.7,2.24-4.38.52-1.69.77-3.54.77-5.56,0-2.74-.46-5.1-1.38-7.1Zm-7.13,13.58c-1.21,1.46-2.66,2.19-4.34,2.19-1.97,0-3.56-.71-4.77-2.14-1.22-1.43-1.82-3.46-1.82-6.12,0-1.81.29-3.37.86-4.68.57-1.31,1.35-2.31,2.35-3.01.99-.69,2.13-1.04,3.39-1.04s2.32.35,3.25,1.04c.93.7,1.65,1.68,2.15,2.95.5,1.27.76,2.78.76,4.54,0,2.72-.61,4.81-1.82,6.26Z"/>
      <path d="m36.12,33.16c-.64-.67-1.44-1-2.42-1s-1.77.33-2.38,1c-.61.67-.92,1.66-.92,2.98v19.07c0,1.3.31,2.31.92,3.01.61.7,1.41,1.05,2.38,1.05s1.79-.35,2.42-1.03c.64-.68.95-1.69.95-3.03v-19.27c0-1.19-.32-2.12-.95-2.78Zm-.05-9.79c-.67-.56-1.44-.83-2.3-.83s-1.68.31-2.36.92c-.68.61-1.02,1.39-1.02,2.33,0,1.05.33,1.85.99,2.42.66.57,1.45.86,2.38.86s1.67-.29,2.32-.87c.65-.58.98-1.38.98-2.41s-.34-1.86-1-2.42Z"/>
      <path d="m59.25,33.21c-1.32-.7-2.68-1.05-4.08-1.05s-2.52.35-3.36,1.05c-.84.7-1.66,1.73-2.46,3.1-.05-1.37-.32-2.4-.81-3.1-.49-.7-1.29-1.05-2.39-1.05-2.17,0-3.25,1.5-3.25,4.49v18.56c0,1.34.31,2.35.93,3.03.62.69,1.41,1.03,2.37,1.03s1.79-.34,2.42-1.02c.64-.68.95-1.69.95-3.04v-5.57c0-2.01.07-3.7.2-5.09.13-1.4.37-2.6.71-3.61.34-1.01.82-1.77,1.44-2.28.62-.52,1.42-.77,2.4-.77.72,0,1.54.15,2.48.45.94.31,1.53.46,1.77.46.65,0,1.26-.27,1.82-.8s.84-1.2.84-2.02c0-1.16-.66-2.08-1.98-2.78Z"/>
      <path d="m86.33,23.21c-.55-.64-1.33-.97-2.34-.97s-1.79.35-2.33,1.05c-.55.7-.82,1.74-.82,3.1v9.84c-1.26-1.37-2.54-2.38-3.86-3.04s-2.94-.99-4.86-.99c-3.32,0-6,1.17-8.03,3.5-2.04,2.33-3.05,5.58-3.05,9.74,0,1.97.26,3.8.77,5.5.52,1.69,1.27,3.17,2.26,4.42,1,1.26,2.17,2.22,3.53,2.9,1.36.68,2.84,1.02,4.43,1.02,1.21,0,2.32-.17,3.33-.51,1.02-.33,1.97-.82,2.84-1.46.87-.65,1.75-1.48,2.65-2.51v.66c0,1.22.3,2.16.89,2.82.59.66,1.35.99,2.26.99s1.69-.32,2.27-.96c.59-.64.88-1.59.88-2.86v-29.41c0-1.26-.27-2.2-.82-2.85Zm-6.72,27.19c-.58,1.26-1.35,2.2-2.32,2.81-.97.61-2.04.92-3.21.92s-2.22-.32-3.2-.97c-.98-.64-1.75-1.6-2.31-2.87-.56-1.27-.85-2.81-.85-4.62,0-1.71.27-3.21.8-4.51.53-1.3,1.28-2.29,2.24-2.98.96-.69,2.05-1.04,3.27-1.04s2.25.34,3.24,1.01c.99.68,1.77,1.66,2.35,2.93.58,1.28.87,2.81.87,4.58,0,1.89-.29,3.46-.87,4.73Z"/>
      <path d="m98.58,23.26c-.62-.68-1.44-1.02-2.45-1.02s-1.81.35-2.41,1.03c-.59.69-.89,1.7-.89,3.03v28.92c0,1.3.31,2.31.92,3.01.61.7,1.41,1.05,2.38,1.05s1.81-.34,2.43-1.02c.63-.68.94-1.69.94-3.04v-28.92c0-1.35-.31-2.37-.93-3.04Z"/>
      <path d="m112.06,35.94v19.27c0,1.34-.32,2.34-.95,3.03s-1.44,1.03-2.42,1.03-1.77-.35-2.38-1.05-.92-1.7-.92-3v-19.07c0-1.32.31-2.31.92-2.98.61-.67,1.4-1,2.38-1s1.78.33,2.42,1c.64.67.95,1.6.95,2.78Z"/>
      <path d="m141.32,39.19c-.13-.95-.42-1.83-.86-2.64-.69-1.4-1.72-2.49-3.1-3.25-1.39-.77-2.96-1.15-4.71-1.15s-3.41.36-4.8,1.09c-1.39.73-2.68,1.86-3.85,3.41v-.81c0-.8-.14-1.48-.43-2.03-.29-.56-.67-.97-1.14-1.25-.48-.28-1.01-.42-1.59-.42-.96,0-1.72.31-2.27.94-.56.63-.83,1.58-.83,2.84v19.27c0,1.3.31,2.31.93,3.01.62.7,1.41,1.05,2.37,1.05s1.81-.34,2.43-1.02c.63-.68.94-1.69.94-3.04v-8.35c0-2.72.17-4.58.49-5.57.46-1.24,1.17-2.21,2.15-2.92.98-.71,2.06-1.06,3.25-1.06,1.82,0,3.04.58,3.65,1.75.61,1.17.92,2.85.92,5.04v11.11c0,1.3.31,2.31.93,3.01.62.7,1.43,1.05,2.42,1.05s1.77-.35,2.38-1.03c.61-.68.92-1.69.92-3.03v-12.4c0-1.47-.07-2.67-.2-3.62Z"/>
      <path d="m168.57,50.11c-.64,0-1.12.15-1.47.44-.83.79-1.51,1.4-2.03,1.86-.52.46-1.09.88-1.71,1.28-.62.4-1.26.69-1.92.88-.66.19-1.39.28-2.19.28-1.19,0-2.28-.3-3.26-.88-.99-.59-1.78-1.46-2.37-2.61-.6-1.16-.9-2.5-.92-4.01h13.05c1.74,0,3.09-.25,4.05-.75s1.44-1.59,1.44-3.26c0-1.81-.46-3.58-1.39-5.32-.93-1.75-2.33-3.17-4.19-4.27-1.87-1.1-4.1-1.65-6.71-1.65-2,0-3.83.32-5.47.97-1.65.64-3.03,1.57-4.15,2.77-1.13,1.21-1.98,2.65-2.57,4.34s-.88,3.51-.88,5.48c0,4.18,1.19,7.5,3.57,9.94,2.38,2.44,5.71,3.67,9.99,3.67,1.87,0,3.53-.25,4.97-.74s2.64-1.1,3.59-1.85c.96-.74,1.67-1.51,2.14-2.32.47-.81.71-1.51.71-2.12,0-.69-.21-1.21-.64-1.59-.42-.38-.98-.56-1.66-.56Zm-13.91-11.64c1.07-1.15,2.43-1.72,4.09-1.72,1.75,0,3.15.57,4.22,1.7,1.07,1.13,1.68,2.84,1.84,5.12h-12.09c.23-2.25.88-3.95,1.95-5.09Z"/>
      <path class="cls-1" d="m170.76,67.61h-74.96c-1.52,0-2.75-1.23-2.75-2.75s1.23-2.75,2.75-2.75h74.96c1.52,0,2.75,1.23,2.75,2.75s-1.23,2.75-2.75,2.75Z"/>
      <path d="m70.91,19.5h-14.97c0-4.64,1.64-8.89,4.35-12.19,0-.02.02-.03.03-.04.18-.22.37-.44.56-.65.07.04.14.07.21.11.98.51,1.91,1.1,2.78,1.76,3.5,2.67,6.04,6.55,7.04,11.02Z"/>
      <path class="cls-1" d="m93.24,6.2v7.56c0,3.18-2.58,5.75-5.75,5.75h-16.59c-1-4.47-3.55-8.35-7.04-11.02,3.25-2.4,8.1-3.74,16.96-3.6h12.26c.1.42.15.86.15,1.32Z"/>
      <path class="cls-2" d="m93.2,4.88h-12.37c-8.86-.14-13.71,1.21-16.96,3.6-.87-.66-1.8-1.25-2.78-1.76-.07-.04-.21-.11-.21-.11,0,0,.45-.57,1.01-1.13C65.27,2.12,69.92.03,75.04.03h12.49c2.87,0,5.24,2.11,5.67,4.85Z"/>
    </g>
  </g>
</svg>